<svg xmlns="http://www.w3.org/2000/svg" version="1.1" xmlns:xlink="http://www.w3.org/1999/xlink" xmlns:svgjs="http://svgjs.dev/svgjs" width="2000" height="2242" viewBox="0 0 2000 2242"><g transform="matrix(1,0,0,1,-3.115249221184058,0)"><svg viewBox="0 0 321 360" data-background-color="#f7f7f7" preserveAspectRatio="xMidYMid meet" height="2242" width="2000" xmlns="http://www.w3.org/2000/svg" xmlns:xlink="http://www.w3.org/1999/xlink"><g id="tight-bounds" transform="matrix(1,0,0,1,0.5000025000000505,0)"><svg viewBox="0 0 320 360" height="360" width="320"><g><svg></svg></g><g><svg viewBox="0 0 320 360" height="360" width="320"><g><path transform="translate(-19.44751,3.1739) scale(3.53591,3.53591)" d="M67.6 10.7c0.2 0 1.8 0.8 2.7 1.1-0.3 0.1-1-0.2-1.8-0.5 0.2 0 0.6 0.1 1 0.3-0.2-0.2-1.7-0.7-1.9-0.9M52.7 7.6c0.3-0.1 3.8 0.4 5.4 0.5 0.1-0.1-0.2-0.1-0.6-0.2 0.5-0.1 1.5 0.2 2.2 0.3-2.1 0.1-4.4-0.5-6.4-0.3-0.7 0-0.2-0.2-0.6-0.3M49.8 7.6c1.8 0 3.2 0 0.6 0.2-0.3-0.1-0.7-0.1-0.6-0.2M78.1 15.9c0.2 0 1 0.9 1.4 1.2-0.1 0.1-0.9-0.7-1.3-1 0.1 0.1 0 0-0.1-0.2M76.1 14.6c-0.8-0.7-1.1-0.7-1.2-1.1 0.7 0.4 1.2 0.8 1.2 1.1M63.2 8.3c0.1-0.1 0.3 0.1 0.8 0.2-0.6-0.1-0.5 0-0.3 0.2-0.7-0.1-0.9-0.2-0.7-0.4 0.4 0.2 0.5 0.1 0.2 0M34.8 9.5c0-0.1 0.4-0.3 0.7-0.4-0.3 0.2-0.2 0.3 0.3 0.1 0 0.1-0.6 0.3-1 0.5 0.2-0.1 0.4-0.4 0-0.2M65.2 7.3c-0.3 0.1-1.4-0.5-2.5-0.7-0.6-0.2 2.4 0.5 2.5 0.7M6.2 56.7c0.6 2.5 0.2 2.4 0 0M6.3 41.7c0.1-0.4 0.2-1.5 0.3-1.4-0.3 2.4-0.8 3.5-0.9 5.3 0.3-1.6-0.1 0.9-0.2 1.5 0.1 0.8 0.1-0.5 0.3-0.3 0.2 0.3-0.4 4.5-0.2 2.2-0.2 2.1 0 4.4 0.4 5-0.5 3.2 2 10.4 2.5 11.9 0.1 0.1 0-0.5 0.2-0.1 0.2 1.3 1.1 2.2 1.4 3.6 0.3 0.4 1.5 2.6 1.7 3.1 0.4 0.8 0.6 0.7 1 1.5 1.2 2.3 3.1 4.5 4.9 6.6 5.8 6.8 14.7 12.4 24.6 14.4 9.9 2.1 20.3 0.6 28.4-3.3 0.5-0.3 0.4-0.4 1-0.6 2.8-0.9 6.2-3.8 8.1-4.9 0.9-1 3.3-2.7 3.6-3.7 1.7-1.4 3.4-3.7 4.3-5.2 0.5-0.8 0.9-0.8 1.1-1.3-0.1 0 1.6-2.1 2.1-3.3-0.2 0-0.5 0.6-0.5 0 3.6-6.9 5.6-16.2 4.5-22.6 0.2 7.9-1.8 16.7-5.6 22.3-1.7 3.6-5.2 7.5-8.4 10.3-0.5 0.5-1 1.1-1.6 1.5-1.9 1.6-4 2.9-6.2 4.1-5.2 2.9-11 5.4-17.8 5.5 11.7-1 22.2-6.9 28-14.1-4.4 4.3-6.3 6-11.2 8.5-0.4 0.7-3.7 2.1-5.9 2.7 1.3-0.6 4-1.6 4.9-2.4-7.3 3.5-15.4 5.5-23 4.4 2.9 0 7 0.1 10.9-0.6 0.6-0.2 0.9-0.4 1.6-0.5 7.6-1.7 14.9-5.4 20.1-10.6-3 2.7-7.5 5.9-10.4 6.9 2.7-1.5 7.6-4.4 9.2-6.6-3.2 3.2-9.2 6.4-13 7.8-0.6 0.1 0.4-0.4-0.6 0-1.2 0.3-0.7 0.3-1 0.5-4.6 1.3-9.9 2.4-14.3 2-0.8-0.1-1.1-0.3-1.8-0.3-0.8-0.1-1.5-0.1-2.4-0.1-3.5-0.4-7.3-1.8-10.1-3-1.5-0.7-3-1.2-4.5-2.1-1.2-0.7-2.2-1.5-3.2-2.3-3.8-2.8-7-5.6-10-9.6-5.4-7.5-8.2-16.9-7.8-26.2 0.4-9.3 4.1-18.4 10-25.1-0.3 0.3 0.4-0.7 1-1.3 0 0.2-0.1 0.5 0.6-0.2 0.6-0.7-0.2-0.2 0.1-0.6 6.2-6.8 17-12.3 28.1-12.5 0.4-0.3 1.1-0.7 1.9-0.5 0 0.1-0.5 0.1-0.5 0.1 1.1-0.1 2.1-0.1 2.6 0.1 0.1-0.1-0.4-0.2 0-0.2 0.7 0.2 0.9 0 1.3 0.2-0.3 0-0.6 0-0.8 0.1 2.5 0 4.1 0.6 6.6 0.8-1.3-0.3-1.6-0.3-2.6-0.6 1.1 0.2 1.6 0.4 2.1 0.3-0.2 0-0.1-0.3 0.1-0.2 2 0.5 2.2 0.7 4.3 1.4 0.2-0.2-0.9-0.3-1.2-0.6 2 0.7 3.8 1.2 5 2-0.4-0.3-1.6-0.7-2.5-1.1-0.1 0.1 0.3 0.2 0.4 0.4-1-0.5-2.4-1-3.8-1.2 1.2 0.3 2 0.7 2.5 0.9-1.1-0.2-2.5-0.9-4.1-1.2 2.6 0.8 7.5 2.6 10.5 4.2-1.1-0.7-2.4-1.2-3.1-1.6 0.6 0.1 1.3 0.5 1.3 0.3 0.7 0.3 1.6 1 2.1 1.1-0.9-0.6-2.7-1.5-3.3-1.8 7.5 3.4 14.2 9.1 18.5 16.4 0.4 0.7 1 2.3 1.5 2.5-0.1-0.5-0.5-0.8-0.9-1.6 0.2 0 0.2-0.3 0-0.6-0.4-0.5 0 0.4-0.4-0.1-1.8-3.3-4-6.2-7.4-9.4 1.9 1.8 0.5 0.5 0.1-0.1 2.6 2.3 5.6 6.2 6.9 8.2-0.2-0.3-0.3-0.5-0.2-0.5 2.4 4.1 3.9 7.8 5.4 13.1 0.1 0.1 0-0.4 0.2-0.1 1 4.2 1.3 7.7 1.2 10.9 0.8-5.4-1-13.8-4.2-20.4-0.4-0.8-0.4-0.2-0.8-1.1 0-0.3-0.3-0.9-0.5-1.3-4-6.6-8.9-11.3-14.7-15 0.4 0.2 1.2 0.8 1.2 0.7-10.8-7.1-23.3-8.1-33.6-5.9-0.7 0.3-1 0.6-1.8 1 1.5-0.5 2.4-0.6 3.8-0.9 0.3-0.3-1.3 0.1-0.6-0.2 0.1 0.1 1.4-0.2 1.7-0.1 0 0.1-0.4 0.2-0.5 0.3 3.3-0.7 6.7-0.8 9.6-0.6-1.7 0.1-4.8-0.2-5.8 0.3 1-0.1 2.4-0.2 3.3-0.1-1.2 0-3.4 0.1-4.4 0.2-0.1-0.1 1.6-0.3 0.5-0.3-0.5 0.1-1.3 0.1-1.6 0.4-8.6 0.8-17 5.3-22.9 10.6-1.2 1-2.6 2.1-3.5 3.2-2.2 2.5-3.6 5-5.2 7.2 1-2.1 3.2-5.3 5.8-8 2.6-2.7 5.4-5 6.9-6.2 0 0.4 2.4-1.5 3.3-2.1-0.6 0.5 0.4-0.2 0.6-0.1 3.2-1.9 5.8-2.6 8.7-3.7-0.7 0.2-1.3 0.4-1.4 0.3 0.7-0.2 1.1-0.4 1-0.5-2.8 0.8-7.2 2.7-10.7 4.8 6.3-4.3 14.3-6.9 22.2-7 7.9-0.2 15.6 1.8 21.7 5 4.1 1.8 8 5.1 11.1 8.3 0.9 0.8 0.2-0.2 1.5 1.2-0.4-0.2-0.7-0.4-0.2 0.2 0.8 0.9-0.2-0.7 1.1 0.9-0.1 0-0.5-0.5-0.5-0.3 3.5 3.1 6.2 8.7 7.8 12.4-0.4-1.5-1.4-3.6-2.2-5.1 2.4 4.4 3.2 7 4.2 10.9 0.4 0.3-0.2-1.4 0.2-0.6 0.1 0.6 0.2 2.5 0.6 2.8-0.3-1.9-0.8-4.2-1.2-4.6 0.3 0.2-0.5-2.3-1-2.9-0.2-1.6-1.6-4.4-2.8-6.5-4.3-8.4-12-15.3-20.6-19.1 0-0.2-0.5-0.4-0.7-0.6-8.5-3.6-18.7-4.6-28.5-2.3-9.9 2.4-19.2 8.1-25.8 16.3 0.3-1 2.8-2.9 2.9-3.7-2.9 3.1-6 7.2-8.1 11.6-2.2 4.4-3.4 8.9-3.9 12.2" fill="#14d2cf" fill-rule="nonzero" stroke="none" stroke-width="1" stroke-linecap="butt" stroke-linejoin="miter" stroke-miterlimit="10" stroke-dasharray="" stroke-dashoffset="0" font-family="none" font-weight="none" font-size="none" text-anchor="none" style="mix-blend-mode: normal" data-fill-palette-color="tertiary"></path></g><g transform="matrix(1,0,0,1,78.68141482948786,90)"><svg viewBox="0 0 162.63717034102427 180" height="180" width="162.63717034102427"><g><svg viewBox="0 0 162.63717034102427 180" height="180" width="162.63717034102427"><g><svg viewBox="0 0 276.864 306.42146500398917" height="180" width="162.63717034102427"><g transform="matrix(1,0,0,1,26.431999999999988,219.777397207379)"><svg viewBox="0 0 224 86.64406779661016" height="86.64406779661016" width="224"><g id="textblocktransform"><svg viewBox="0 0 224 86.64406779661016" height="86.64406779661016" width="224" id="textblock"><g><svg viewBox="0 0 224 86.64406779661016" height="86.64406779661016" width="224"><g transform="matrix(1,0,0,1,0,0)"><svg width="224" viewBox="3.15 -31.5 82.58999999999999 31.95" height="86.64406779661016" data-palette-color="#2fd58c"><g class="wordmark-text-0" data-fill-palette-color="primary" id="text-0"><path d="M6 0L3.15 0 3.15-29.55 6.85-29.55 13.25-5.5 19.8-29.55 23.35-29.55 23.35 0 20.55 0 20.55-23.9 14.4 0 12.15 0 6-23.9 6 0ZM35.55 0.45L35.55 0.45Q33.05 0.45 31.5-0.13 29.95-0.7 29.25-2.25 28.55-3.8 28.55-6.75L28.55-6.75 28.55-19.1Q28.55-22.6 30.12-23.9 31.7-25.2 35.35-25.2L35.35-25.2Q38.9-25.2 40.47-23.9 42.05-22.6 42.05-19.1L42.05-19.1 42.05-12.7 31.65-12.7 31.65-5.7Q31.65-3.3 32.4-2.38 33.15-1.45 35.45-1.45L35.45-1.45Q37.55-1.45 38.25-2.35 38.95-3.25 38.95-5.7L38.95-5.7 38.95-8.9 42.05-8.9 42.05-6.8Q42.05-3.9 41.35-2.33 40.65-0.75 39.22-0.15 37.8 0.45 35.55 0.45ZM31.65-19.2L31.65-14.3 38.95-14.3 38.95-19.2Q38.95-21.3 38.25-22.25 37.55-23.2 35.35-23.2L35.35-23.2Q33.15-23.2 32.4-22.25 31.65-21.3 31.65-19.2L31.65-19.2ZM51.99 0.4L51.99 0.4Q50.14 0.4 48.95-0.08 47.74-0.55 47.07-1.43 46.39-2.3 46.14-3.63 45.89-4.95 45.89-6.65L45.89-6.65 45.89-19Q45.89-20.35 46.17-21.48 46.45-22.6 47.09-23.43 47.74-24.25 48.84-24.73 49.95-25.2 51.64-25.2L51.64-25.2Q53.64-25.2 54.77-24.6 55.89-24 56.39-23.15L56.39-23.15 56.39-31.5 59.49-31.5 59.49 0 57.34 0 57.05-2.35Q56.74-1.7 56.17-1.07 55.59-0.45 54.62-0.03 53.64 0.4 51.99 0.4ZM52.55-1.5L52.55-1.5Q53.99-1.5 54.8-2.02 55.59-2.55 55.92-3.4 56.24-4.25 56.32-5.28 56.39-6.3 56.39-7.3L56.39-7.3 56.39-20.85Q56.24-21.3 55.87-21.85 55.49-22.4 54.74-22.8 53.99-23.2 52.7-23.2L52.7-23.2Q51.24-23.2 50.49-22.8 49.74-22.4 49.42-21.73 49.09-21.05 49.05-20.2 48.99-19.35 48.99-18.45L48.99-18.45 48.99-6.25Q48.99-5.05 49.14-3.95 49.3-2.85 50.05-2.18 50.8-1.5 52.55-1.5ZM67.79 0L64.74 0 64.74-24.75 67.79-24.75 67.79 0ZM66.29-27.8L66.29-27.8Q65.54-27.8 65.02-28.33 64.49-28.85 64.49-29.55L64.49-29.55Q64.49-30.3 65.02-30.78 65.54-31.25 66.29-31.25L66.29-31.25Q66.99-31.25 67.54-30.78 68.09-30.3 68.09-29.55L68.09-29.55Q68.09-28.85 67.54-28.33 66.99-27.8 66.29-27.8ZM73.89 0L70.84 0 76.44-13.05 71.64-24.75 74.64-24.75 78.39-15.55 82.39-24.75 85.34-24.75 80.34-13.05 85.74 0 82.74 0 78.39-10.3 73.89 0Z" fill="#2fd58c" data-fill-palette-color="primary"></path></g></svg></g></svg></g></svg></g></svg></g><g><svg viewBox="0 0 276.864 199.32281225822646" height="199.32281225822646" width="276.864"><g><svg xmlns="http://www.w3.org/2000/svg" xmlns:xlink="http://www.w3.org/1999/xlink" version="1.1" x="0" y="0" viewBox="0.135 13.334647856434952 98.37527549266609 70.82335214356505" enable-background="new 0 0 100 100" xml:space="preserve" height="199.32281225822646" width="276.864" class="icon-icon-0" data-fill-palette-color="accent" id="icon-0"><g fill="#36b8e3" data-fill-palette-color="accent"><path d="M89.401 41.332C84.944 38.327 81.286 38.913 76.227 41.605 76.841 35.906 76.03 32.291 71.589 29.271 66.651 25.916 60.059 26.99 56.879 31.665 51.631 39.39 53.635 52.044 56.475 65.27 56.75 66.555 56.955 67.774 58.014 68.49 59.154 69.263 60.123 69.017 61.37 68.802 74.762 66.527 87.388 63.65 92.633 55.879 95.796 51.19 94.352 44.673 89.401 41.332" fill="#36b8e3" data-fill-palette-color="accent"></path><path d="M48.516 38.41A1.35 1.35 0 0 1 47.189 36.804C48.021 32.496 49.429 28.925 51.494 25.885 54.951 20.797 61.1 18.239 66.802 19.525A1.35 1.35 0 0 1 67.823 21.139 1.354 1.354 0 0 1 66.209 22.16C61.581 21.118 56.568 23.224 53.729 27.403 51.874 30.132 50.603 33.376 49.841 37.316A1.354 1.354 0 0 1 48.516 38.41" fill="#36b8e3" data-fill-palette-color="accent"></path><path d="M45.403 26.189A1.35 1.35 0 0 1 44.181 24.268 26 26 0 0 1 46.213 20.686C48.739 16.971 52.604 14.44 57.389 13.368A1.346 1.346 0 0 1 59.001 14.39 1.35 1.35 0 0 1 57.98 16.002C53.876 16.921 50.578 19.066 48.444 22.204A23 23 0 0 0 46.627 25.409C46.398 25.901 45.912 26.189 45.403 26.189" fill="#36b8e3" data-fill-palette-color="accent"></path><path d="M84.088 69.995A1.348 1.348 0 0 1 83.781 67.331 27 27 0 0 0 87.635 66.118C90.991 64.774 93.899 62.344 96.043 59.093A1.35 1.35 0 0 1 98.297 60.579C95.848 64.292 92.509 67.073 88.639 68.625A30 30 0 0 1 84.398 69.958 1.3 1.3 0 0 1 84.088 69.995" fill="#36b8e3" data-fill-palette-color="accent"></path><path d="M75.798 73.223H55.592C55.318 74.461 54.525 76.449 53.61 77.39 50.945 80.089 46.041 79.82 43.337 77.194L33.417 67.523 34.995 65.745 44.901 75.411C46.902 77.338 50.101 77.29 52.054 75.312A5.1 5.1 0 0 0 53.262 73.175C53.505 72.342 53.522 71.47 53.352 70.639A5.15 5.15 0 0 0 51.937 68.188L33.807 50.585S32.312 49.147 30.621 48.162C28.791 47.095 26.136 47.04 26.136 47.04H0.135V65.24L13.357 65.291 35.584 82.061C37.154 83.396 39.201 84.107 41.013 84.158H75.799C79.669 84.158 81.397 81.477 81.397 78.648 81.396 75.848 78.613 73.223 75.798 73.223" fill="#36b8e3" data-fill-palette-color="accent"></path></g></svg></g></svg></g><g></g></svg></g></svg></g></svg></g></svg></g><defs></defs></svg><rect width="320" height="360" fill="none" stroke="none" visibility="hidden"></rect></g></svg></g></svg>